<?xml version="1.0" encoding="UTF-8" standalone="no"?><!DOCTYPE svg PUBLIC "-//W3C//DTD SVG 1.1//EN" "http://www.w3.org/Graphics/SVG/1.1/DTD/svg11.dtd"><svg width="100%" height="100%" viewBox="0 0 1536 864" version="1.1" xmlns="http://www.w3.org/2000/svg" xmlns:xlink="http://www.w3.org/1999/xlink" xml:space="preserve" xmlns:serif="http://www.serif.com/" style="fill-rule:evenodd;clip-rule:evenodd;stroke-linejoin:round;stroke-miterlimit:2;"><g id="TextNoLogo_BlackFill"><path d="M467.854,425.299l-3.602,9.756c-0.941,2.677 -0.643,2.036 -1.609,3.943c-1.166,2.3 -3.24,4.772 -7.042,6.133c-2.254,0.807 -5.466,1.05 -9.907,1.05l-48.445,0c-7.552,-0.068 -13.638,-6.209 -13.638,-13.762c0,-7.552 6.086,-13.694 13.638,-13.762l53.561,0c0.572,0.015 1.107,-0.281 1.398,-0.774c0.29,-0.493 0.29,-1.105 0,-1.598c-0.29,-0.493 -0.826,-0.789 -1.398,-0.774c-1.007,-0 -1.973,-0.4 -2.686,-1.112l-29.057,-29.058c-2.201,-2.14 -2.511,-5.567 -0.728,-8.067c1.055,-1.426 2.68,-2.322 4.449,-2.454c1.769,-0.132 3.508,0.514 4.763,1.769l37.941,37.939c2.82,2.822 3.742,7.027 2.362,10.771Zm-14.93,8.691c0.852,-0.023 1.532,-0.72 1.532,-1.573c0,-0.853 -0.679,-1.55 -1.532,-1.573l-47.807,0c-0.572,-0.015 -1.107,0.281 -1.398,0.774c-0.29,0.493 -0.29,1.105 0,1.598c0.29,0.493 0.826,0.789 1.398,0.774l47.807,-0Z"/><path d="M510.58,433.573l-19.499,0c-0.572,0.015 -1.107,-0.281 -1.398,-0.774c-0.29,-0.493 -0.29,-1.105 0,-1.598c0.29,-0.493 0.826,-0.789 1.398,-0.774l11.805,0c3.333,-0.045 6.012,-2.76 6.012,-6.094c0,-3.334 -2.679,-6.049 -6.012,-6.094l-19.552,0c-7.6,0 -13.761,6.161 -13.761,13.761c0,7.6 6.161,13.761 13.761,13.761l27.246,0c3.366,0 6.094,-2.728 6.094,-6.094c0,-3.366 -2.728,-6.094 -6.094,-6.094l-0,0Z" style="fill-rule:nonzero;"/><path d="M485.865,415.01c3.338,-0.542 5.605,-3.687 5.063,-7.024c-0.542,-3.338 -3.687,-5.605 -7.024,-5.063c-3.338,0.542 -5.605,3.687 -5.063,7.024c0.542,3.338 3.687,5.605 7.024,5.063Z" style="fill-rule:nonzero;"/><path d="M501.004,415.01c3.338,-0.542 5.605,-3.687 5.063,-7.024c-0.542,-3.338 -3.687,-5.605 -7.024,-5.063c-3.338,0.542 -5.605,3.687 -5.063,7.024c0.542,3.338 3.687,5.605 7.024,5.063Z" style="fill-rule:nonzero;"/><path d="M624.804,445.839l-27.042,-27.042c-0.63,-0.63 -0.819,-1.578 -0.478,-2.402c0.341,-0.824 1.144,-1.361 2.035,-1.362l11.252,0c1.721,-0 3.361,-0.728 4.516,-2.003c1.155,-1.275 1.718,-2.979 1.549,-4.691c-0.393,-3.178 -3.119,-5.548 -6.321,-5.495l-54.588,0c-1.72,0 -3.361,0.727 -4.516,2.002c-1.155,1.275 -1.718,2.978 -1.55,4.69c0.393,3.178 3.12,5.548 6.322,5.495l16.428,0c2.782,-0 5.45,1.105 7.418,3.072l36.539,36.539c1.217,1.217 2.891,1.862 4.609,1.777c1.718,-0.085 3.321,-0.892 4.412,-2.222c1.877,-2.554 1.629,-6.092 -0.586,-8.358l-0,-0Z" style="fill-rule:nonzero;"/><path d="M708.209,439.118l-3.67,-9.942c-0.907,-2.601 -0.302,-5.49 1.572,-7.509c1.285,-1.449 2.01,-3.309 2.044,-5.246c0.042,-4.433 -3.424,-8.108 -7.851,-8.325c-3.503,-0.135 -7.517,1.668 -8.563,5.569c-0.632,2.644 -2.974,4.526 -5.693,4.573l-1.949,0c-3.366,0 -6.094,2.728 -6.094,6.094c0,3.366 2.728,6.094 6.094,6.094l9.298,0c0.852,0.023 1.532,0.72 1.532,1.573c0,0.853 -0.679,1.55 -1.532,1.573l-47.807,0c-0.572,0.015 -1.107,-0.281 -1.398,-0.774c-0.29,-0.493 -0.29,-1.105 0,-1.598c0.29,-0.493 0.826,-0.789 1.398,-0.774l2.146,0c3.366,0 6.094,-2.728 6.094,-6.094c0,-3.366 -2.728,-6.094 -6.094,-6.094l-10.133,0c-7.6,0 -13.761,6.161 -13.761,13.761c0,7.6 6.161,13.761 13.761,13.761l53.561,0c0.851,0.005 1.544,0.686 1.564,1.537c0.02,0.851 -0.64,1.563 -1.49,1.608c-1.026,0.011 -2.011,0.408 -2.758,1.112l-29.01,29.009c-2.217,2.267 -2.466,5.805 -0.588,8.36c1.091,1.33 2.694,2.138 4.413,2.222c1.719,0.085 3.393,-0.561 4.61,-1.777l37.941,-37.942c2.822,-2.821 3.746,-7.027 2.364,-10.771l0,0Z" style="fill-rule:nonzero;"/><path d="M540.202,418.235c-2.718,-0.048 -5.06,-1.929 -5.693,-4.573c-1.044,-3.905 -5.059,-5.704 -8.563,-5.569c-4.428,0.217 -7.893,3.892 -7.85,8.325c0.034,1.936 0.759,3.796 2.043,5.246c1.875,2.018 2.48,4.908 1.574,7.509l-0.99,2.609c-1.202,3.17 -0.77,6.729 1.156,9.52c1.926,2.791 5.1,4.457 8.491,4.457l10.761,0c1.72,-0.001 3.361,-0.728 4.516,-2.003c1.155,-1.275 1.718,-2.979 1.549,-4.691c-0.396,-3.179 -3.125,-5.548 -6.328,-5.495l-1.341,0c-0.572,0.015 -1.107,-0.281 -1.398,-0.774c-0.29,-0.493 -0.29,-1.105 0,-1.598c0.29,-0.493 0.826,-0.789 1.398,-0.774l33.911,0c3.366,0 6.094,-2.728 6.094,-6.094c0,-3.366 -2.728,-6.094 -6.094,-6.094l-33.235,-0Z" style="fill-rule:nonzero;"/><path d="M828.366,425.299l-3.602,9.756c-0.941,2.677 -0.643,2.036 -1.609,3.943c-1.166,2.3 -3.24,4.772 -7.042,6.133c-2.254,0.807 -5.466,1.05 -9.907,1.05l-48.445,0c-7.552,-0.068 -13.638,-6.209 -13.638,-13.762c0,-7.552 6.086,-13.694 13.638,-13.762l53.561,0c0.572,0.015 1.107,-0.281 1.398,-0.774c0.29,-0.493 0.29,-1.105 0,-1.598c-0.29,-0.493 -0.826,-0.789 -1.398,-0.774c-1.007,-0 -1.973,-0.4 -2.686,-1.112l-29.057,-29.058c-2.201,-2.14 -2.511,-5.567 -0.728,-8.067c1.055,-1.426 2.68,-2.322 4.449,-2.454c1.769,-0.132 3.508,0.514 4.763,1.769l37.941,37.939c2.82,2.822 3.742,7.027 2.362,10.771Zm-14.93,8.691c0.852,-0.023 1.532,-0.72 1.532,-1.573c0,-0.853 -0.679,-1.55 -1.532,-1.573l-47.807,0c-0.572,-0.015 -1.107,0.281 -1.398,0.774c-0.29,0.493 -0.29,1.105 0,1.598c0.29,0.493 0.826,0.789 1.398,0.774l47.807,-0Z"/><path d="M853.978,418.655c-2.718,-0.048 -5.06,-1.929 -5.693,-4.573c-1.044,-3.905 -5.059,-5.704 -8.563,-5.569c-4.428,0.217 -7.893,3.892 -7.85,8.325c0.034,1.936 0.759,3.796 2.043,5.246c1.875,2.018 2.48,4.908 1.574,7.509l-0.99,2.609c-1.202,3.17 -0.77,6.729 1.156,9.52c1.926,2.791 5.1,4.457 8.491,4.457l10.761,0c1.72,-0.001 3.361,-0.728 4.516,-2.003c1.155,-1.275 1.718,-2.979 1.549,-4.691c-0.396,-3.179 -3.125,-5.548 -6.328,-5.495l-1.341,0c-0.572,0.015 -1.107,-0.281 -1.398,-0.774c-0.29,-0.493 -0.29,-1.105 0,-1.598c0.29,-0.493 0.826,-0.789 1.398,-0.774l33.911,0c3.366,0 6.094,-2.728 6.094,-6.094c0,-3.366 -2.728,-6.094 -6.094,-6.094l-33.235,-0Z" style="fill-rule:nonzero;"/><path d="M917.121,418.655l48.445,0c7.552,0.068 13.638,6.209 13.638,13.762c0,7.552 -6.086,13.694 -13.638,13.762l-53.562,0c-0.852,0.023 -1.532,0.72 -1.532,1.573c0,0.853 0.679,1.55 1.532,1.573c1.007,-0.001 1.974,0.4 2.686,1.112l3.921,3.921c2.201,2.14 2.511,5.567 0.728,8.067c-1.056,1.426 -2.68,2.322 -4.449,2.454c-1.769,0.132 -3.508,-0.513 -4.763,-1.767l-12.806,-12.807c-2.821,-2.821 -3.743,-7.027 -2.361,-10.769l3.602,-9.754c0.941,-2.677 0.344,-5.655 -1.557,-7.762c-1.25,-1.44 -1.953,-3.274 -1.986,-5.18c-0.042,-4.432 3.423,-8.107 7.85,-8.325c3.523,-0.136 7.563,1.686 8.58,5.636c0.636,2.624 2.972,4.48 5.672,4.506Zm40.459,15.335c0.852,-0.023 1.532,-0.72 1.532,-1.573c0,-0.853 -0.679,-1.55 -1.532,-1.573l-47.807,0c-0.572,-0.015 -1.107,0.281 -1.398,0.774c-0.29,0.493 -0.29,1.105 0,1.598c0.29,0.493 0.826,0.789 1.398,0.774l47.807,-0Z"/><path d="M1065.485,425.302l-3.601,9.754c-0.941,2.677 -0.344,5.654 1.557,7.761c1.25,1.44 1.953,3.274 1.986,5.18c0.043,4.433 -3.423,8.108 -7.85,8.325c-3.523,0.136 -7.563,-1.685 -8.58,-5.636c-0.636,-2.624 -2.972,-4.48 -5.672,-4.506l-48.446,0c-7.6,0 -13.761,-6.161 -13.761,-13.761c0,-7.6 6.161,-13.761 13.761,-13.761l53.562,0c0.852,-0.023 1.532,-0.72 1.532,-1.573c0,-0.853 -0.679,-1.55 -1.532,-1.573c-1.007,0 -1.974,-0.4 -2.686,-1.112l-11.142,-11.142c-2.201,-2.141 -2.51,-5.567 -0.727,-8.067c1.055,-1.426 2.679,-2.322 4.449,-2.454c1.769,-0.132 3.508,0.514 4.763,1.769l20.027,20.027c2.821,2.821 3.743,7.027 2.361,10.769Zm-62.623,8.691l47.807,0c0.572,0.015 1.107,-0.281 1.398,-0.774c0.29,-0.493 0.29,-1.105 0,-1.598c-0.29,-0.493 -0.826,-0.789 -1.398,-0.774l-47.807,0c-0.852,0.023 -1.532,0.72 -1.532,1.573c0,0.853 0.679,1.55 1.532,1.573Z"/><path d="M1138.624,418.655l-48.446,0c-2.718,-0.048 -5.059,-1.928 -5.693,-4.572c-1.044,-3.906 -5.058,-5.705 -8.563,-5.57c-4.427,0.218 -7.893,3.893 -7.85,8.325c0.034,1.936 0.759,3.797 2.044,5.246c1.874,2.019 2.479,4.908 1.572,7.509l-0.99,2.609c-1.202,3.171 -0.77,6.729 1.156,9.52c1.926,2.791 5.101,4.457 8.491,4.457l10.529,0c2.948,0.055 5.533,-1.961 6.198,-4.834c0.377,-1.798 -0.076,-3.671 -1.233,-5.097c-1.158,-1.427 -2.897,-2.256 -4.734,-2.257l-1.604,0c-0.572,0.015 -1.107,-0.281 -1.398,-0.774c-0.29,-0.493 -0.29,-1.105 0,-1.598c0.29,-0.493 0.826,-0.789 1.398,-0.774l8.793,0c0.539,-0 1.056,0.214 1.437,0.595c0.381,0.381 0.595,0.898 0.595,1.437c-0.055,2.949 1.962,5.534 4.835,6.198c1.798,0.377 3.671,-0.076 5.097,-1.233c1.427,-1.158 2.256,-2.897 2.257,-4.734l0,-0.23c0,-1.122 0.91,-2.032 2.032,-2.032l16.089,0c0.852,0.023 1.532,0.72 1.532,1.573c0,0.853 -0.679,1.55 -1.532,1.573l-10.12,0c-2.948,-0.055 -5.532,1.961 -6.197,4.834c-0.377,1.798 0.076,3.671 1.233,5.097c1.158,1.427 2.897,2.256 4.734,2.257l17.948,0c6.841,0.091 12.746,-4.772 13.968,-11.503c0.661,-3.99 -0.466,-8.069 -3.081,-11.154c-2.615,-3.085 -6.455,-4.864 -10.499,-4.866l0,0Z" style="fill-rule:nonzero;"/><path d="M1107.578,456.25c3.321,-0.539 5.577,-3.668 5.038,-6.989c-0.539,-3.321 -3.668,-5.577 -6.989,-5.038c-3.321,0.539 -5.577,3.668 -5.038,6.989c0.539,3.321 3.668,5.577 6.989,5.038Z" style="fill-rule:nonzero;"/></g></svg>