<?xml version="1.0" encoding="UTF-8" standalone="no"?><!DOCTYPE svg PUBLIC "-//W3C//DTD SVG 1.1//EN" "http://www.w3.org/Graphics/SVG/1.1/DTD/svg11.dtd"><svg width="100%" height="100%" viewBox="0 0 6400 3600" version="1.1" xmlns="http://www.w3.org/2000/svg" xmlns:xlink="http://www.w3.org/1999/xlink" xml:space="preserve" xmlns:serif="http://www.serif.com/" style="fill-rule:evenodd;clip-rule:evenodd;stroke-linecap:round;stroke-linejoin:round;stroke-miterlimit:1.5;"><g id="TextWithLogo_Stroke"><path d="M1949.392,1771.204l-15.008,40.65c-3.921,11.154 -2.679,8.483 -6.704,16.429c-4.858,9.583 -13.5,19.883 -29.342,25.554c-9.392,3.363 -22.775,4.375 -41.279,4.375l-201.854,0c-31.467,-0.283 -56.825,-25.871 -56.825,-57.342c0,-31.467 25.358,-57.058 56.825,-57.342l223.171,0c2.383,0.062 4.612,-1.171 5.825,-3.225c1.208,-2.054 1.208,-4.604 0,-6.658c-1.208,-2.054 -3.442,-3.288 -5.825,-3.225c-4.196,0 -8.221,-1.667 -11.192,-4.633l-121.071,-121.075c-9.171,-8.917 -10.463,-23.196 -3.033,-33.613c4.396,-5.942 11.167,-9.675 18.537,-10.225c7.371,-0.55 14.617,2.142 19.846,7.371l158.088,158.079c11.75,11.758 15.592,29.279 9.842,44.879Zm-71.263,-18.508l-222.875,0c-26.421,0.254 -47.713,21.746 -47.713,48.175c0,26.429 21.287,47.921 47.713,48.175l201.804,0c17.112,0 29.504,-0.729 38.192,-3.838c13.079,-4.683 20.242,-13.154 24.254,-21.067c3.754,-7.404 2.579,-4.921 6.233,-15.325l0.05,-0.133l15.008,-40.646c4.513,-12.246 1.5,-25.996 -7.725,-35.225l-158.083,-158.075c-3.342,-3.342 -7.975,-5.062 -12.688,-4.708c-4.683,0.35 -8.983,2.708 -11.817,6.492c-4.729,6.725 -3.875,15.892 2.025,21.629l0.092,0.092l121.067,121.071c1.25,1.25 2.946,1.95 4.717,1.954l-0.246,0.004l4.183,0.454l3.85,1.513l3.325,2.462l2.604,3.308l1.633,3.879l0.546,4.1l-0.546,4.1l-1.633,3.879l-2.604,3.308l-3.325,2.463l-3.85,1.513l-4.183,0.454l-0.008,-0.008Z"/><path d="M2127.417,1805.679c14.025,0 25.392,11.367 25.392,25.392c0,14.025 -11.367,25.392 -25.392,25.392l-113.525,0c-31.667,0 -57.338,-25.671 -57.338,-57.338c0,-31.667 25.671,-57.338 57.338,-57.338l81.467,0c13.888,0.188 25.05,11.5 25.05,25.392c0,13.892 -11.162,25.204 -25.05,25.392l-49.188,0c-2.383,-0.062 -4.613,1.171 -5.825,3.225c-1.208,2.054 -1.208,4.604 0,6.658c1.208,2.054 3.442,3.287 5.825,3.225l81.246,0Zm0,9.167l-81.004,0l-4.183,-0.454l-3.85,-1.513l-3.325,-2.463l-2.604,-3.308l-1.633,-3.879l-0.546,-4.1l0.546,-4.1l1.633,-3.879l2.604,-3.308l3.325,-2.462l3.85,-1.513l4.183,-0.454l48.917,-0.004c8.829,-0.171 15.912,-7.379 15.912,-16.225c0,-8.858 -7.104,-16.079 -15.958,-16.225l-81.392,0c-26.604,0 -48.171,21.567 -48.171,48.171c0,26.604 21.567,48.171 48.171,48.171l113.525,0c8.962,0 16.225,-7.267 16.225,-16.225c0,-8.963 -7.267,-16.225 -16.225,-16.225l0,-0.004Z"/><path d="M2024.438,1728.338c-13.908,2.258 -27.013,-7.188 -29.267,-21.096c-2.258,-13.908 7.188,-27.013 21.096,-29.267c13.908,-2.258 27.013,7.188 29.267,21.096c2.258,13.908 -7.188,27.013 -21.096,29.267Zm-1.467,-9.05c8.908,-1.446 14.963,-9.842 13.517,-18.75c-1.446,-8.908 -9.842,-14.963 -18.75,-13.517c-8.908,1.446 -14.963,9.842 -13.517,18.75c1.446,8.908 9.842,14.962 18.75,13.517Z"/><path d="M2087.517,1728.338c-13.908,2.258 -27.012,-7.188 -29.267,-21.096c-2.258,-13.908 7.188,-27.013 21.096,-29.267c13.908,-2.258 27.013,7.188 29.267,21.096c2.258,13.908 -7.188,27.013 -21.096,29.267Zm-1.467,-9.05c8.908,-1.446 14.963,-9.842 13.517,-18.75c-1.446,-8.908 -9.842,-14.963 -18.75,-13.517c-8.908,1.446 -14.963,9.842 -13.517,18.75c1.446,8.908 9.842,14.962 18.75,13.517Z"/><path d="M2605.9,1859.804l-2.546,6.15l2.575,-6.112c6.775,9.362 6.892,22.221 -0.133,31.775c-4.546,5.542 -11.225,8.904 -18.383,9.258c-7.158,0.354 -14.138,-2.337 -19.204,-7.404l-152.246,-152.246c-8.196,-8.196 -19.317,-12.8 -30.908,-12.8l-68.45,0c-13.342,0.221 -24.704,-9.654 -26.342,-22.896c-0.704,-7.133 1.642,-14.233 6.458,-19.542c4.812,-5.312 11.646,-8.342 18.817,-8.342l227.45,0c13.342,-0.221 24.7,9.654 26.338,22.896c0.704,7.133 -1.642,14.233 -6.454,19.546c-4.812,5.312 -11.65,8.342 -18.817,8.346l-46.883,0c-3.712,0.004 -7.062,2.246 -8.479,5.675c-1.421,3.433 -0.633,7.383 1.992,10.008l112.675,112.675c0.933,0.954 1.783,1.963 2.546,3.017l-0.004,-0.004Zm-9.029,3.467l-112.675,-112.675c-5.246,-5.246 -6.817,-13.138 -3.979,-19.992c2.838,-6.854 9.521,-11.329 16.942,-11.342l46.896,0c4.583,0 8.95,-1.937 12.025,-5.333c3.05,-3.367 4.546,-7.85 4.125,-12.45c-1.146,-8.5 -8.471,-14.813 -17.063,-14.671l-227.604,0c-4.579,0 -8.95,1.938 -12.025,5.333c-3.05,3.363 -4.546,7.85 -4.129,12.446c1.146,8.5 8.475,14.812 17.071,14.671l68.604,0c14.025,0 27.471,5.567 37.387,15.483l152.246,152.246c3.238,3.237 7.696,4.958 12.271,4.733c4.492,-0.221 8.683,-2.296 11.604,-5.746c4.975,-6.979 4.271,-16.529 -1.692,-22.704l-0.004,-0Z"/><path d="M2250.842,1741.775l138.479,0c14.025,0 25.392,11.367 25.392,25.392c0,14.025 -11.367,25.392 -25.392,25.392l-141.296,0c-2.383,-0.062 -4.613,1.171 -5.825,3.225c-1.208,2.054 -1.208,4.604 0,6.658c1.208,2.054 3.442,3.287 5.825,3.225l5.588,0c13.346,-0.225 24.717,9.65 26.367,22.896c0.704,7.133 -1.642,14.233 -6.454,19.546c-4.812,5.312 -11.646,8.342 -18.817,8.346l-44.837,0c-14.129,0 -27.354,-6.946 -35.379,-18.571c-8.025,-11.629 -9.825,-26.454 -4.817,-39.667l4.125,-10.871c3.779,-10.837 1.254,-22.879 -6.558,-31.288c-5.35,-6.037 -8.371,-13.792 -8.512,-21.858c-0.179,-18.471 14.262,-33.783 32.708,-34.688c14.6,-0.562 31.329,6.938 35.679,23.204c2.637,11.017 12.396,18.854 23.721,19.054l0.004,0.004Zm-2.575,73.058l-4.183,-0.454l-3.85,-1.513l-3.325,-2.462l-2.604,-3.308l-1.633,-3.879l-0.546,-4.1l0.546,-4.1l1.633,-3.879l2.604,-3.308l3.325,-2.463l3.85,-1.513l4.183,-0.454l141.054,0c8.962,0 16.225,-7.267 16.225,-16.225c0,-8.963 -7.267,-16.225 -16.225,-16.225l-138.642,0c-15.479,-0.275 -28.817,-10.967 -32.475,-26.071c-3.275,-11.729 -15.758,-16.588 -26.396,-16.196c-13.483,0.704 -24.025,11.9 -23.912,25.433c0.117,5.829 2.296,11.433 6.142,15.8c10.058,10.892 13.296,26.446 8.417,40.454l-0.083,0.233l-4.125,10.871c-3.942,10.392 -2.525,22.058 3.787,31.208c6.312,9.15 16.721,14.608 27.833,14.613l44.833,0c4.583,0 8.95,-1.938 12.025,-5.333c3.05,-3.363 4.546,-7.85 4.129,-12.442c-1.154,-8.504 -8.492,-14.821 -17.092,-14.675l-5.5,0l0.004,-0.013Z"/><path d="M3884.913,1771.204l-15.008,40.65c-3.921,11.154 -2.679,8.483 -6.704,16.429c-4.858,9.583 -13.5,19.883 -29.342,25.554c-9.392,3.363 -22.775,4.375 -41.279,4.375l-201.854,0c-31.467,-0.283 -56.825,-25.871 -56.825,-57.342c0,-31.467 25.358,-57.058 56.825,-57.342l223.171,0c2.383,0.062 4.612,-1.171 5.825,-3.225c1.208,-2.054 1.208,-4.604 0,-6.658c-1.208,-2.054 -3.442,-3.288 -5.825,-3.225c-4.196,0 -8.221,-1.667 -11.192,-4.633l-121.071,-121.075c-9.171,-8.917 -10.463,-23.196 -3.033,-33.613c4.396,-5.942 11.167,-9.675 18.537,-10.225c7.371,-0.55 14.617,2.142 19.846,7.371l158.088,158.079c11.75,11.758 15.592,29.279 9.842,44.879Zm-71.262,-18.508l-222.875,0c-26.421,0.254 -47.713,21.746 -47.713,48.175c0,26.429 21.287,47.921 47.713,48.175l201.804,0c17.112,0 29.504,-0.729 38.192,-3.838c13.079,-4.683 20.242,-13.154 24.254,-21.067c3.754,-7.404 2.579,-4.921 6.233,-15.325l0.05,-0.133l15.008,-40.646c4.512,-12.246 1.5,-25.996 -7.725,-35.225l-158.083,-158.075c-3.342,-3.342 -7.975,-5.062 -12.687,-4.708c-4.683,0.35 -8.983,2.708 -11.817,6.492c-4.729,6.725 -3.875,15.892 2.025,21.629l0.092,0.092l121.067,121.071c1.25,1.25 2.946,1.95 4.717,1.954l-0.246,0.004l4.183,0.454l3.85,1.513l3.325,2.462l2.604,3.308l1.633,3.879l0.546,4.1l-0.546,4.1l-1.633,3.879l-2.604,3.308l-3.325,2.463l-3.85,1.513l-4.183,0.454l-0.008,-0.008Z"/><path d="M4217.375,1800.875l212.308,0" style="fill:none;stroke:#000;stroke-width:10.42px;"/><path d="M3991.625,1743.521l138.479,0c14.025,0 25.392,11.367 25.392,25.392c0,14.025 -11.367,25.392 -25.392,25.392l-141.296,0c-2.383,-0.062 -4.612,1.171 -5.825,3.225c-1.208,2.054 -1.208,4.604 0,6.658c1.208,2.054 3.442,3.288 5.825,3.225l5.588,0c13.346,-0.225 24.717,9.65 26.367,22.896c0.704,7.133 -1.642,14.233 -6.454,19.546c-4.812,5.312 -11.646,8.342 -18.817,8.346l-44.837,0c-14.129,0 -27.354,-6.946 -35.379,-18.571c-8.025,-11.629 -9.825,-26.454 -4.817,-39.667l4.125,-10.871c3.779,-10.838 1.254,-22.879 -6.558,-31.288c-5.35,-6.038 -8.371,-13.792 -8.513,-21.858c-0.179,-18.471 14.263,-33.783 32.708,-34.688c14.6,-0.562 31.329,6.938 35.679,23.204c2.638,11.017 12.396,18.854 23.721,19.054l0.004,0.004Zm-2.575,73.058l-4.183,-0.454l-3.85,-1.513l-3.325,-2.463l-2.604,-3.308l-1.633,-3.879l-0.546,-4.1l0.546,-4.1l1.633,-3.879l2.604,-3.308l3.325,-2.462l3.85,-1.513l4.183,-0.454l141.054,0c8.962,0 16.225,-7.267 16.225,-16.225c0,-8.963 -7.267,-16.225 -16.225,-16.225l-138.642,0c-15.479,-0.275 -28.817,-10.967 -32.475,-26.071c-3.275,-11.729 -15.758,-16.587 -26.396,-16.196c-13.483,0.704 -24.025,11.9 -23.913,25.433c0.117,5.829 2.296,11.433 6.142,15.8c10.058,10.892 13.296,26.446 8.417,40.454l-0.083,0.233l-4.125,10.871c-3.942,10.392 -2.525,22.058 3.787,31.208c6.312,9.15 16.721,14.608 27.833,14.612l44.833,0c4.583,0 8.95,-1.938 12.025,-5.333c3.05,-3.362 4.546,-7.85 4.129,-12.442c-1.154,-8.504 -8.492,-14.821 -17.092,-14.675l-5.5,0l0.004,-0.013Z"/><path d="M4254.721,1743.521l201.854,0c31.467,0.283 56.825,25.871 56.825,57.342c0,31.467 -25.358,57.058 -56.825,57.342l-223.175,0c-3.55,0.096 -6.383,3 -6.383,6.554c0,3.554 2.829,6.458 6.383,6.554c4.196,-0.004 8.225,1.667 11.192,4.633l16.337,16.337c9.171,8.917 10.463,23.196 3.033,33.612c-4.4,5.942 -11.167,9.675 -18.538,10.225c-7.371,0.55 -14.617,-2.137 -19.846,-7.362l-53.358,-53.363c-11.754,-11.754 -15.596,-29.279 -9.838,-44.871l15.008,-40.642c3.921,-11.154 1.433,-23.562 -6.487,-32.342c-5.208,-6 -8.138,-13.642 -8.275,-21.583c-0.175,-18.467 14.262,-33.779 32.708,-34.688c14.679,-0.567 31.512,7.025 35.75,23.483c2.65,10.933 12.383,18.667 23.633,18.775l0,-0.008Zm-0.087,9.167c-15.417,-0.15 -28.762,-10.729 -32.454,-25.779c-3.146,-11.938 -15.75,-16.883 -26.471,-16.487c-13.483,0.704 -24.025,11.9 -23.912,25.433c0.117,5.746 2.233,11.271 5.975,15.604c10.121,11.271 13.292,27.163 8.267,41.454l-0.05,0.138l-15.008,40.642c-4.521,12.237 -1.504,25.992 7.721,35.217l53.354,53.358c3.342,3.342 7.975,5.058 12.687,4.708c4.683,-0.35 8.983,-2.708 11.817,-6.492c4.729,-6.725 3.875,-15.892 -2.025,-21.629l-16.433,-16.433c-1.246,-1.246 -2.938,-1.95 -4.704,-1.946l-0.25,-0.004l-3.096,-0.392l-2.892,-0.967l-2.604,-1.475l-2.254,-1.917l-1.858,-2.304l-1.404,-2.642l-0.887,-2.917l-0.308,-3.104l0.308,-3.104l0.887,-2.917l1.404,-2.642l1.858,-2.304l2.254,-1.917l2.604,-1.475l2.892,-0.967l3.096,-0.392l0.242,-0.004l223.121,0c26.421,-0.254 47.713,-21.746 47.713,-48.175c0,-26.429 -21.288,-47.921 -47.713,-48.175l-201.887,0l0.012,0.004Z"/><path d="M4605.592,1800.875l212.308,0" style="fill:none;stroke:#000;stroke-width:10.42px;"/><path d="M4872.904,1771.217l-15.004,40.642c-3.921,11.154 -1.433,23.558 6.487,32.338c5.208,6 8.138,13.642 8.275,21.583c0.179,18.471 -14.262,33.783 -32.708,34.688c-14.679,0.567 -31.512,-7.021 -35.75,-23.483c-2.65,-10.933 -12.383,-18.667 -23.633,-18.775l-201.858,0c-31.667,0 -57.337,-25.671 -57.337,-57.338c0,-31.667 25.671,-57.338 57.337,-57.338l223.175,0c3.55,-0.096 6.383,-3 6.383,-6.554c0,-3.554 -2.829,-6.458 -6.383,-6.554c-4.196,0 -8.225,-1.667 -11.192,-4.633l-46.425,-46.425c-9.171,-8.921 -10.458,-23.196 -3.029,-33.612c4.396,-5.942 11.163,-9.675 18.538,-10.225c7.371,-0.55 14.617,2.142 19.846,7.371l83.446,83.446c11.754,11.754 15.596,29.279 9.838,44.871l-0.004,0Zm-8.6,-3.175c4.521,-12.237 1.504,-25.992 -7.721,-35.217l-83.442,-83.442c-3.342,-3.342 -7.971,-5.058 -12.683,-4.708c-4.683,0.35 -8.983,2.708 -11.817,6.492c-4.729,6.721 -3.879,15.892 2.021,21.629l0.092,0.088l46.425,46.425c1.246,1.246 2.942,1.95 4.704,1.946l0.246,0.004l3.096,0.392l2.892,0.967l2.604,1.475l2.254,1.917l1.858,2.304l1.404,2.642l0.887,2.917l0.308,3.104l-0.308,3.104l-0.887,2.917l-1.404,2.642l-1.858,2.304l-2.254,1.917l-2.604,1.475l-2.892,0.967l-3.096,0.392l-0.242,0.004l-223.175,0c-26.604,0 -48.171,21.567 -48.171,48.171c0,26.604 21.567,48.171 48.171,48.171l201.946,0c15.417,0.15 28.762,10.729 32.454,25.779c3.146,11.938 15.75,16.883 26.471,16.487c13.483,-0.704 24.025,-11.9 23.912,-25.433c-0.117,-5.746 -2.233,-11.271 -5.975,-15.604c-10.121,-11.267 -13.292,-27.158 -8.267,-41.45l0.05,-0.133l15.004,-40.642l-0.004,0Z"/><g id="newM"><path d="M5177.662,1743.517l-0.012,9.162l-202.021,0c-15.479,-0.271 -28.817,-10.967 -32.475,-26.067c-3.275,-11.733 -15.754,-16.592 -26.392,-16.2c-13.483,0.704 -24.025,11.9 -23.912,25.433c0.117,5.829 2.296,11.433 6.146,15.8c10.058,10.896 13.296,26.45 8.413,40.458l-0.083,0.233l-4.125,10.871c-3.942,10.392 -2.525,22.063 3.788,31.208c6.312,9.15 16.721,14.608 27.837,14.608l44.042,0c7.925,0.146 14.879,-5.25 16.712,-13.012c0.95,-4.746 -0.267,-9.667 -3.317,-13.429c-3.083,-3.8 -7.717,-6.008 -12.613,-6.013l-6.433,0l-4.183,-0.454l-3.85,-1.513l-3.325,-2.463l-2.604,-3.308l-1.633,-3.879l-0.546,-4.1l0.546,-4.1l1.633,-3.879l2.604,-3.308l3.325,-2.463l3.85,-1.512l4.183,-0.454l36.392,0l3.458,0.342l3.292,1l3.038,1.621l2.688,2.2l2.204,2.688l1.621,3.037l1,3.292l0.342,3.458l0,0.171c-0.146,7.929 5.254,14.879 13.017,16.713c4.746,0.95 9.667,-0.263 13.429,-3.317c3.8,-3.083 6.004,-7.746 6.008,-12.642l7.904,7.925c-1.504,4.592 -4.3,8.725 -8.138,11.838c-5.946,4.825 -13.746,6.713 -21.238,5.138c-11.975,-2.767 -20.375,-13.537 -20.146,-25.825c0,-2.246 -0.892,-4.4 -2.479,-5.987c-1.588,-1.588 -3.742,-2.479 -5.988,-2.479l-36.637,0c-2.383,-0.062 -4.612,1.171 -5.825,3.225c-1.208,2.054 -1.208,4.604 0,6.658c1.208,2.054 3.442,3.287 5.825,3.225l6.683,0c7.654,0.004 14.9,3.458 19.725,9.404c4.825,5.946 6.713,13.746 5.137,21.237c-2.771,11.971 -13.538,20.371 -25.825,20.142l-43.871,0c-14.129,0 -27.354,-6.942 -35.379,-18.571c-8.025,-11.629 -9.825,-26.458 -4.817,-39.667l4.125,-10.871c3.779,-10.837 1.258,-22.875 -6.55,-31.287c-5.354,-6.038 -8.375,-13.788 -8.517,-21.858c-0.175,-18.467 14.263,-33.779 32.708,-34.688c14.604,-0.562 31.329,6.938 35.679,23.208c2.637,11.017 12.396,18.85 23.721,19.05l201.858,0Zm-110.054,68.108l-7.904,-7.925l0,-0.938l8.129,8.133c-0.071,0.246 -0.146,0.487 -0.225,0.729Zm0.225,-0.729l-8.129,-8.133l0.358,-3.546l1.033,-3.321l1.629,-3l2.146,-2.604l2.604,-2.146l3,-1.629l3.321,-1.033l3.546,-0.358l67.037,0l0.242,0.004l3.096,0.392l2.892,0.967l2.604,1.475l2.254,1.917l1.858,2.304l1.404,2.642l0.887,2.917l0.308,3.104l-0.308,3.104l-0.887,2.917l-1.404,2.642l-1.858,2.304l-2.254,1.917l-2.604,1.475l-2.892,0.967l-3.096,0.392l-0.242,0.004l-42.337,0c-7.925,-0.146 -14.875,5.25 -16.708,13.013c-0.95,4.746 0.263,9.667 3.317,13.429c3.083,3.8 7.717,6.008 12.613,6.012l74.9,0c24,0.321 44.725,-16.725 49.054,-40.392c2.267,-13.929 -1.683,-28.154 -10.808,-38.921c-9.158,-10.8 -22.6,-17.029 -36.754,-17.033c4.817,0 8.762,-3.713 9.137,-8.433c13.396,2.167 25.704,9.038 34.608,19.538c10.896,12.854 15.592,29.85 12.837,46.475c-5.092,28.046 -29.696,48.312 -58.2,47.929l-74.783,0c-7.654,-0.004 -14.9,-3.458 -19.725,-9.404c-4.825,-5.946 -6.713,-13.746 -5.137,-21.237c2.767,-11.971 13.533,-20.371 25.821,-20.142l42.167,0c3.55,-0.096 6.383,-3 6.383,-6.554c0,-3.554 -2.829,-6.458 -6.383,-6.554l-67.037,0c-4.675,0 -8.467,3.792 -8.467,8.467l0,0.958c0,2.454 -0.358,4.867 -1.037,7.171l-0.004,0.008Z"/><path d="M5186.792,1744.242c-1.49,-0.274 -5.257,-0.725 -9.142,-0.725c-0.215,0 0,9.162 0,9.162l9.142,0c0,0 2.122,-8.048 0,-8.438Z"/><path d="M5048.292,1900.158c-13.837,2.246 -26.875,-7.154 -29.121,-20.992c-2.246,-13.838 7.154,-26.875 20.992,-29.121c13.837,-2.246 26.875,7.154 29.121,20.992c2.246,13.838 -7.154,26.875 -20.992,29.121Zm-1.467,-9.05c8.842,-1.433 14.846,-9.763 13.408,-18.604c-1.433,-8.842 -9.763,-14.846 -18.604,-13.408c-8.842,1.433 -14.846,9.763 -13.408,18.604c1.433,8.842 9.762,14.846 18.604,13.408Z"/></g><path d="M2952.708,1835.317c0,0 0.058,-0.045 0.392,2.358c1.812,13.054 -2.517,26.425 -12.083,35.988l-158.088,158.092c-5.071,5.071 -12.046,7.758 -19.208,7.404c-7.163,-0.354 -13.838,-3.717 -18.388,-9.258c-7.821,-10.646 -6.783,-25.388 2.45,-34.833l120.875,-120.871c3.112,-2.933 7.217,-4.587 11.492,-4.633c3.542,-0.188 6.292,-3.154 6.208,-6.7c-0.083,-3.546 -2.971,-6.383 -6.517,-6.404l-223.171,0c-31.667,0 -57.338,-25.671 -57.338,-57.338c0,-31.667 25.671,-57.338 57.338,-57.338l42.221,0c14.025,0 25.392,11.367 25.392,25.392c0,14.025 -11.367,25.392 -25.392,25.392l-8.942,0c-2.383,-0.062 -4.613,1.171 -5.825,3.225c-1.208,2.054 -1.208,4.604 0,6.658c1.208,2.054 3.442,3.287 5.825,3.225l199.196,0c3.55,-0.096 6.383,-3 6.383,-6.554c0,-3.554 -2.829,-6.458 -6.383,-6.554l-38.742,0c-14.025,0 -25.392,-11.367 -25.392,-25.392c0,-14.025 11.367,-25.392 25.392,-25.392l8.121,0c11.329,-0.196 21.088,-8.033 23.721,-19.054c4.358,-16.254 21.083,-23.767 35.679,-23.204c18.45,0.904 32.892,16.217 32.713,34.687c-0.142,8.067 -3.162,15.821 -8.517,21.858c-7.808,8.412 -10.329,20.45 -6.55,31.288l15.292,41.425c0.792,2.146 1.404,4.333 1.838,6.533l0.008,0Zm-10.433,-3.358l-15.292,-41.425l-0.054,-0.154c-4.892,-14.025 -1.638,-29.608 8.458,-40.508c3.829,-4.375 5.992,-9.963 6.1,-15.775c0.113,-13.517 -10.45,-24.717 -23.946,-25.408c-10.646,-0.392 -23.175,4.517 -26.4,16.321c-3.658,15.013 -16.983,25.675 -32.442,25.946l-8.279,0c-8.962,0 -16.225,7.267 -16.225,16.225c0,8.963 7.267,16.225 16.225,16.225l38.742,0l0.242,0.004l3.096,0.392l2.892,0.967l2.604,1.475l2.254,1.917l1.858,2.304l1.404,2.642l0.887,2.917l0.308,3.104l-0.308,3.104l-0.887,2.917l-1.404,2.642l-1.858,2.304l-2.254,1.917l-2.604,1.475l-2.892,0.967l-3.096,0.392l-0.242,0.004l-198.95,0l-4.183,-0.454l-3.85,-1.513l-3.325,-2.463l-2.604,-3.308l-1.633,-3.879l-0.546,-4.1l0.546,-4.1l1.633,-3.879l2.604,-3.308l3.325,-2.462l3.85,-1.513l4.183,-0.454l8.7,0c8.962,0 16.225,-7.267 16.225,-16.225c0,-8.963 -7.267,-16.225 -16.225,-16.225l-42.221,0c-26.604,0 -48.171,21.567 -48.171,48.171c0,26.604 21.567,48.171 48.171,48.171l223.229,0l3.096,0.325l2.908,0.904l2.629,1.417l2.292,1.867l1.904,2.258l1.463,2.604l0.954,2.892l0.379,3.088l-0.233,3.104l-0.817,2.933l-1.338,2.671l-1.796,2.346l-2.204,1.971l-2.562,1.538l-2.863,1.038l-3.075,0.471l-0.383,0.012c-1.938,0.021 -3.796,0.754 -5.225,2.067l-120.758,120.754c-5.975,6.175 -6.679,15.733 -1.671,22.75c2.9,3.417 7.088,5.483 11.571,5.704c4.575,0.225 9.033,-1.492 12.275,-4.733l158.088,-158.092c9.229,-9.225 12.25,-22.979 7.733,-35.221l-0.013,-0.012Z"/><g id="LogoStroke"><path d="M3423.321,1800c0,62.204 -80.488,112.704 -179.621,112.704c-99.137,0 -179.621,-50.5 -179.621,-112.704c0,-62.204 80.488,-112.704 179.621,-112.704c99.138,0 179.621,50.5 179.621,112.704Z" style="fill:none;stroke:#000;stroke-width:9.17px;stroke-linecap:square;"/><g><path d="M3162.863,1800l161.679,0" style="fill:none;stroke:#000;stroke-width:9.17px;"/><path d="M3243.7,1719.163l0,161.679" style="fill:none;stroke:#000;stroke-width:9.17px;"/><path d="M3300.863,1742.838l-114.325,114.325" style="fill:none;stroke:#000;stroke-width:9.17px;"/><path d="M3300.863,1857.163l-114.325,-114.325" style="fill:none;stroke:#000;stroke-width:9.17px;"/></g></g><path d="M1681.263,1800.875l212.308,0" style="fill:none;stroke:#000;stroke-width:10.42px;"/><path d="M3616.779,1800.875l212.304,0" style="fill:none;stroke:#000;stroke-width:10.42px;"/></g><g id="Striche"><path d="M3059.017,1686.425l-27.417,-27.417" style="fill:none;stroke:#000;stroke-width:8.67px;"/><path d="M3428.388,1911.833l27.417,27.417" style="fill:none;stroke:#000;stroke-width:8.67px;"/><path d="M3428.388,1686.425l27.417,-27.417" style="fill:none;stroke:#000;stroke-width:8.67px;"/><path d="M3059.017,1911.833l-27.417,27.417" style="fill:none;stroke:#000;stroke-width:8.67px;"/></g></svg>