<?xml version="1.0" encoding="UTF-8" standalone="no"?><!DOCTYPE svg PUBLIC "-//W3C//DTD SVG 1.1//EN" "http://www.w3.org/Graphics/SVG/1.1/DTD/svg11.dtd"><svg width="100%" height="100%" viewBox="0 0 1536 864" version="1.1" xmlns="http://www.w3.org/2000/svg" xmlns:xlink="http://www.w3.org/1999/xlink" xml:space="preserve" xmlns:serif="http://www.serif.com/" style="fill-rule:evenodd;clip-rule:evenodd;stroke-linecap:square;stroke-linejoin:round;stroke-miterlimit:1.5;"><g id="LogoStroke"><path d="M821.597,432c0,14.929 -19.317,27.049 -43.109,27.049c-23.793,0 -43.109,-12.12 -43.109,-27.049c0,-14.929 19.317,-27.049 43.109,-27.049c23.793,0 43.109,12.12 43.109,27.049Z" style="fill:none;stroke:#000;stroke-width:2px;"/><g><path d="M759.087,432l38.803,0" style="fill:none;stroke:#000;stroke-width:2px;stroke-linecap:round;"/><path d="M778.488,412.599l0,38.803" style="fill:none;stroke:#000;stroke-width:2px;stroke-linecap:round;"/><path d="M792.207,418.281l-27.438,27.438" style="fill:none;stroke:#000;stroke-width:2px;stroke-linecap:round;"/><path d="M792.207,445.719l-27.438,-27.438" style="fill:none;stroke:#000;stroke-width:2px;stroke-linecap:round;"/></g></g><g id="Striche_thin"><path d="M734.164,404.742l-6.58,-6.58" style="fill:none;stroke:#000;stroke-width:2.08px;stroke-linecap:round;"/><path d="M822.813,458.84l6.58,6.58" style="fill:none;stroke:#000;stroke-width:2.08px;stroke-linecap:round;"/><path d="M822.813,404.742l6.58,-6.58" style="fill:none;stroke:#000;stroke-width:2.08px;stroke-linecap:round;"/><path d="M734.164,458.84l-6.58,6.58" style="fill:none;stroke:#000;stroke-width:2.08px;stroke-linecap:round;"/></g></svg>