<?xml version="1.0" encoding="UTF-8" standalone="no"?><!DOCTYPE svg PUBLIC "-//W3C//DTD SVG 1.1//EN" "http://www.w3.org/Graphics/SVG/1.1/DTD/svg11.dtd"><svg width="100%" height="100%" viewBox="0 0 1536 864" version="1.1" xmlns="http://www.w3.org/2000/svg" xmlns:xlink="http://www.w3.org/1999/xlink" xml:space="preserve" xmlns:serif="http://www.serif.com/" style="fill-rule:evenodd;clip-rule:evenodd;stroke-linecap:round;stroke-linejoin:round;stroke-miterlimit:1.5;"><g><g id="LogoFilled"><path d="M821.597,432c0,14.929 -19.317,27.049 -43.109,27.049c-23.793,-0 -43.109,-12.12 -43.109,-27.049c0,-14.929 19.317,-27.049 43.109,-27.049c23.793,0 43.109,12.12 43.109,27.049Zm-46.972,1.6l-10.988,10.988c-0.624,0.624 -0.624,1.638 0,2.263c0.624,0.624 1.638,0.624 2.263,0l10.988,-10.988l0,15.539c0,0.883 0.717,1.6 1.6,1.6c0.883,-0 1.6,-0.717 1.6,-1.6l0,-15.539l10.988,10.988c0.624,0.624 1.638,0.624 2.263,-0c0.624,-0.624 0.624,-1.638 -0,-2.263l-10.988,-10.988l15.539,0c0.883,0 1.6,-0.717 1.6,-1.6c0,-0.883 -0.717,-1.6 -1.6,-1.6l-15.539,0l10.988,-10.988c0.624,-0.624 0.624,-1.638 0,-2.263c-0.624,-0.624 -1.638,-0.624 -2.263,-0l-10.988,10.988l0,-15.539c0,-0.883 -0.717,-1.6 -1.6,-1.6c-0.883,-0 -1.6,0.717 -1.6,1.6l0,15.539l-10.988,-10.988c-0.624,-0.624 -1.638,-0.624 -2.263,-0c-0.624,0.624 -0.624,1.638 0,2.263l10.988,10.988l-15.539,-0c-0.883,0 -1.6,0.717 -1.6,1.6c0,0.883 0.717,1.6 1.6,1.6l15.539,0Z"/><path d="M821.597,432c0,14.929 -19.317,27.049 -43.109,27.049c-23.793,-0 -43.109,-12.12 -43.109,-27.049c0,-14.929 19.317,-27.049 43.109,-27.049c23.793,0 43.109,12.12 43.109,27.049Zm-2.2,0c0,-5.362 -2.855,-10.279 -7.553,-14.299c-7.52,-6.435 -19.677,-10.55 -33.357,-10.55c-13.68,0 -25.837,4.115 -33.357,10.55c-4.698,4.02 -7.553,8.937 -7.553,14.299c0,5.362 2.855,10.279 7.553,14.299c7.52,6.435 19.677,10.55 33.357,10.55c13.68,0 25.837,-4.115 33.357,-10.55c4.698,-4.02 7.553,-8.937 7.553,-14.299Zm-50.083,3.8l-10.227,-0l-0.764,-0.077l-0.716,-0.223l-0.646,-0.351l-0.561,-0.463l-0.463,-0.561l-0.351,-0.646l-0.223,-0.716l-0.077,-0.764l0.077,-0.764l0.223,-0.716l0.351,-0.646l0.463,-0.561l0.561,-0.463l0.646,-0.351l0.716,-0.223l0.764,-0.077l10.227,-0l-7.232,-7.232l-0.485,-0.595l-0.349,-0.664l-0.209,-0.705l-0.069,-0.723l0.069,-0.723l0.209,-0.705l0.349,-0.664l0.485,-0.595l0.595,-0.485l0.664,-0.349l0.705,-0.209l0.723,-0.069l0.723,0.069l0.705,0.209l0.664,0.349l0.595,0.485l7.232,7.232l0,-10.227l0.077,-0.764l0.223,-0.716l0.351,-0.646l0.463,-0.561l0.561,-0.463l0.646,-0.351l0.716,-0.223l0.764,-0.077l0.764,0.077l0.716,0.223l0.646,0.351l0.561,0.463l0.463,0.561l0.351,0.646l0.223,0.716l0.077,0.764l0,10.227l7.232,-7.232l0.595,-0.485l0.664,-0.349l0.705,-0.209l0.723,-0.069l0.723,0.069l0.705,0.209l0.664,0.349l0.595,0.485l0.485,0.595l0.349,0.664l0.209,0.705l0.069,0.723l-0.069,0.723l-0.209,0.705l-0.349,0.664l-0.485,0.595l-7.232,7.232l10.227,0l0.764,0.077l0.716,0.223l0.646,0.351l0.561,0.463l0.463,0.561l0.351,0.646l0.223,0.716l0.077,0.764l-0.077,0.764l-0.223,0.716l-0.351,0.646l-0.463,0.561l-0.561,0.463l-0.646,0.351l-0.716,0.223l-0.764,0.077l-10.227,0l7.232,7.232l0.485,0.595l0.349,0.664l0.209,0.705l0.069,0.723l-0.069,0.723l-0.209,0.705l-0.349,0.664l-0.485,0.595l-0.595,0.485l-0.664,0.349l-0.705,0.209l-0.723,0.069l-0.723,-0.069l-0.705,-0.209l-0.664,-0.349l-0.595,-0.485l-7.232,-7.232l0,10.227l-0.077,0.764l-0.223,0.716l-0.351,0.646l-0.463,0.561l-0.561,0.463l-0.646,0.351l-0.716,0.223l-0.764,0.077l-0.764,-0.077l-0.716,-0.223l-0.646,-0.351l-0.561,-0.463l-0.463,-0.561l-0.351,-0.646l-0.223,-0.716l-0.077,-0.764l-0,-10.227l-7.232,7.232l-0.595,0.485l-0.664,0.349l-0.705,0.209l-0.723,0.069l-0.723,-0.069l-0.705,-0.209l-0.664,-0.349l-0.595,-0.485l-0.485,-0.595l-0.349,-0.664l-0.209,-0.705l-0.069,-0.723l0.069,-0.723l0.209,-0.705l0.349,-0.664l0.485,-0.595l7.232,-7.232Zm5.311,-2.2l-10.988,10.988c-0.624,0.624 -0.624,1.638 0,2.263c0.624,0.624 1.638,0.624 2.263,0l10.988,-10.988l0,15.539c0,0.883 0.717,1.6 1.6,1.6c0.883,-0 1.6,-0.717 1.6,-1.6l0,-15.539l10.988,10.988c0.624,0.624 1.638,0.624 2.263,-0c0.624,-0.624 0.624,-1.638 -0,-2.263l-10.988,-10.988l15.539,0c0.883,0 1.6,-0.717 1.6,-1.6c0,-0.883 -0.717,-1.6 -1.6,-1.6l-15.539,0l10.988,-10.988c0.624,-0.624 0.624,-1.638 0,-2.263c-0.624,-0.624 -1.638,-0.624 -2.263,-0l-10.988,10.988l0,-15.539c0,-0.883 -0.717,-1.6 -1.6,-1.6c-0.883,-0 -1.6,0.717 -1.6,1.6l0,15.539l-10.988,-10.988c-0.624,-0.624 -1.638,-0.624 -2.263,-0c-0.624,0.624 -0.624,1.638 0,2.263l10.988,10.988l-15.539,-0c-0.883,0 -1.6,0.717 -1.6,1.6c0,0.883 0.717,1.6 1.6,1.6l15.539,0Z"/></g><ellipse cx="778.488" cy="432" rx="43.109" ry="27.049" style="fill:none;stroke:#000;stroke-width:3.33px;"/></g><g id="Striche"><path d="M734.164,404.742l-6.58,-6.58" style="fill:none;stroke:#000;stroke-width:3.33px;"/><path d="M822.813,458.84l6.58,6.58" style="fill:none;stroke:#000;stroke-width:3.33px;"/><path d="M822.813,404.742l6.58,-6.58" style="fill:none;stroke:#000;stroke-width:3.33px;"/><path d="M734.164,458.84l-6.58,6.58" style="fill:none;stroke:#000;stroke-width:3.33px;"/></g></svg>